# xmcd CD database file
#
# Track frame offsets:
#	150
#	18972
#	38723
#	57541
#	72559
#	89607
#	103788
#	118048
#	127185
#	139306
#	152137
#	166335
#	179485
#	194048
#	208987
#	222416
#	236897
#	249856
#	261873
#	277072
#	287904
#	302585
#	320496
#
# Disc length: 4469 seconds
#
# Revision: 0
# Processed by: cddbd v1.5.2PL0 Copyright (c) Steve Scherf et al.
# Submitted via: CDex 1.70beta2
#
DISCID=79117317
DTITLE=Various Artist - New Orleans Jazz Icons [CD2of2)
DYEAR=2017
DGENRE=Jazz
TTITLE0=Sidney Bechet - Summertime
TTITLE1=Sidney Bechet - Sweet Lorraine
TTITLE2=Sidney Bechet - Sweet Sue
TTITLE3=Sidney Bechet - Si Tu Vois Ma Mere
TTITLE4=Sidney Bechet - China Boy
TTITLE5=Sidney Bechet - The Mooche
TTITLE6=Sidney Bechet - When The Sun Sets Down South
TTITLE7=Sidney Bechet - Laughin' In Rhythm
TTITLE8=Jelly Roll Morton - Mamie's Blues
TTITLE9=Jelly Roll Morton - Winin' Boy Blues
TTITLE10=Jelly Roll Morton - The Seattle Hunch
TTITLE11=Jelly Roll Morton - Pep
TTITLE12=Jelly Roll Morton - Shreveport Stomp
TTITLE13=Jelly Roll Morton - Wolverine Blues
TTITLE14=Jelly Roll Morton with Lizzie Miles - Don't Tell Me Nothin' 'Bout My Man
TTITLE15=Louis Armstrong - Basin Street Blues
TTITLE16=Louis Armstrong - Coal Cart Blues
TTITLE17=Louis Armstrong - Weather Bird
TTITLE18=Louis Armstrong - St. James' Infirmary
TTITLE19=Louis Armstrong - Marie
TTITLE20=Louis Armstrong - You Rascal, You
TTITLE21=Louis Armstrong - Ain't Misbehavin' (Live)
TTITLE22=Louis Armstrong - West End Blues
EXTD=YEAR: 2017
EXTT0=
EXTT1=
EXTT2=
EXTT3=
EXTT4=
EXTT5=
EXTT6=
EXTT7=
EXTT8=
EXTT9=
EXTT10=
EXTT11=
EXTT12=
EXTT13=
EXTT14=
EXTT15=
EXTT16=
EXTT17=
EXTT18=
EXTT19=
EXTT20=
EXTT21=
EXTT22=
PLAYORDER=
